<?xml version="1.0" standalone="no"?>
<!DOCTYPE svg PUBLIC "-//W3C//DTD SVG 20010904//EN"
 "http://www.w3.org/TR/2001/REC-SVG-20010904/DTD/svg10.dtd">
<svg version="1.0" xmlns="http://www.w3.org/2000/svg"
 width="512.000000pt" height="512.000000pt" viewBox="0 0 512.000000 512.000000"
 preserveAspectRatio="xMidYMid meet">
<metadata>
Created by potrace 1.14, written by Peter Selinger 2001-2017
</metadata>
<g transform="translate(0.000000,512.000000) scale(0.100000,-0.100000)"
fill="#000000" stroke="none">
<path d="M2258 5115 c-1 -1 -55 -6 -118 -10 -63 -4 -131 -8 -150 -10 -93 -8
-167 -15 -185 -19 -11 -2 -42 -7 -70 -10 -90 -12 -120 -17 -145 -22 -14 -2
-36 -6 -50 -9 -14 -3 -50 -9 -80 -15 -85 -16 -88 -16 -210 -45 -102 -25 -292
-84 -374 -118 -82 -33 -234 -111 -289 -149 -81 -55 -162 -138 -187 -191 -31
-65 -36 -116 -34 -342 1 -206 2 -211 28 -267 93 -197 444 -380 946 -493 41 -9
82 -18 90 -20 8 -1 33 -6 55 -10 22 -4 49 -9 60 -11 53 -10 298 -43 360 -50
39 -3 81 -8 95 -10 150 -18 734 -25 960 -10 181 11 305 23 350 31 14 3 45 7
70 10 239 29 595 109 762 171 323 120 511 246 583 390 l28 59 1 240 0 240 -27
57 c-15 32 -51 81 -80 111 -47 49 -166 137 -183 137 -4 0 -15 6 -23 13 -72 60
-464 195 -706 243 -74 15 -237 44 -270 49 -22 3 -51 7 -65 10 -48 9 -124 17
-270 30 -41 3 -93 8 -115 11 -44 5 -751 14 -757 9z"/>
<path d="M368 3392 c-2 -9 -3 -130 -3 -267 2 -248 2 -252 28 -308 98 -215 468
-400 1032 -516 77 -16 164 -32 194 -36 30 -4 63 -9 75 -11 12 -2 42 -6 67 -9
25 -3 54 -7 65 -9 17 -3 89 -10 215 -21 271 -24 844 -24 1044 -1 22 3 85 10
140 16 134 14 153 17 275 35 104 16 357 68 415 85 17 5 77 23 135 41 356 107
602 262 677 426 27 58 27 60 28 318 1 143 0 263 -2 267 -2 4 -36 -13 -75 -39
-305 -198 -886 -357 -1488 -409 -36 -3 -83 -7 -105 -9 -75 -8 -390 -19 -515
-19 -145 1 -494 13 -530 19 -14 2 -61 6 -105 10 -44 3 -96 8 -115 10 -422 52
-705 113 -1000 217 -108 38 -329 145 -396 191 -44 30 -53 33 -56 19z"/>
<path d="M366 2042 c1 -266 1 -269 27 -325 71 -156 298 -301 647 -416 144 -47
434 -113 595 -136 23 -3 51 -7 62 -9 12 -3 46 -7 75 -11 29 -3 67 -7 83 -9 71
-9 229 -22 380 -31 106 -6 549 -6 650 0 158 9 277 19 375 30 63 7 146 18 160
20 8 1 49 8 90 15 68 10 221 40 310 60 85 19 270 73 359 106 286 106 471 232
541 369 l33 66 1 269 c1 149 -1 270 -3 270 -3 0 -32 -17 -65 -39 -248 -158
-640 -290 -1056 -356 -19 -3 -60 -10 -90 -15 -91 -15 -141 -21 -280 -35 -41
-4 -88 -9 -105 -11 -208 -26 -975 -26 -1195 1 -14 1 -59 6 -100 10 -41 4 -86
9 -100 10 -45 5 -124 16 -180 25 -30 5 -71 12 -90 15 -70 12 -87 15 -182 34
-361 75 -674 191 -895 334 -24 15 -44 27 -45 27 -2 0 -3 -121 -2 -268z"/>
<path d="M366 958 c0 -139 4 -269 8 -288 21 -93 113 -196 256 -284 49 -31 92
-56 94 -56 2 0 37 -15 78 -34 240 -110 616 -205 1003 -251 28 -3 64 -8 80 -11
17 -2 62 -6 100 -9 39 -3 111 -8 160 -12 195 -15 822 -8 985 12 19 2 65 6 101
10 36 3 76 7 90 10 13 2 47 6 74 10 28 3 59 8 70 10 11 3 38 7 60 10 22 3 47
7 55 10 8 2 32 6 52 9 141 21 437 102 586 160 293 115 471 247 518 388 15 45
18 92 18 311 1 141 -1 257 -3 257 -2 0 -41 -23 -87 -51 -72 -43 -163 -89 -289
-144 -120 -53 -475 -152 -645 -180 -19 -3 -57 -10 -85 -15 -27 -5 -66 -11 -85
-14 -131 -18 -274 -36 -325 -41 -33 -3 -76 -8 -95 -10 -165 -20 -783 -27 -990
-12 -241 18 -266 20 -405 38 -134 17 -156 20 -275 40 -417 72 -756 184 -1005
333 -51 31 -95 56 -97 56 -2 0 -3 -114 -2 -252z"/>
</g>
</svg>
